<svg width="61" height="104" viewBox="0 0 61 104" fill="none" xmlns="http://www.w3.org/2000/svg">
<path d="M30.335 52.001C33.5259 52.001 36.6857 53.02 39.6338 55.001C42.5819 56.982 45.2612 59.8855 47.5176 63.5459C49.774 67.2063 51.563 71.5524 52.7842 76.335C53.9921 81.0658 54.6194 86.1325 54.6328 91.252C58.15 91.2556 60.9999 94.1079 61 97.626C61 101.146 58.1464 104 54.626 104H6.37402C2.85373 104 0 101.146 0 97.626C0.000108487 94.2191 2.67296 91.4355 6.03613 91.2598C6.04897 86.1377 6.67623 81.0682 7.88477 76.335C9.10593 71.5524 10.8959 67.2063 13.1523 63.5459C15.4087 59.8856 18.088 56.982 21.0361 55.001C23.9842 53.0201 27.144 52.001 30.335 52.001ZM54.626 0C58.1463 0 60.9999 2.85371 61 6.37402C61 9.89347 58.148 12.7455 54.6289 12.7471C54.6157 17.8675 53.9884 22.9353 52.7803 27.667C51.5592 32.4493 49.7699 36.7948 47.5137 40.4551C45.2572 44.1155 42.578 47.02 39.6299 49.001C36.6818 50.9819 33.522 52.0009 30.3311 52.001C27.1402 52.001 23.9803 50.9818 21.0322 49.001C18.0841 47.02 15.4049 44.1155 13.1484 40.4551C10.8921 36.7947 9.10199 32.4494 7.88086 27.667C6.67201 22.9326 6.04477 17.8617 6.03223 12.7383C2.67088 12.5605 0 9.77966 0 6.37402C9.1384e-05 2.85378 2.85378 0.000112872 6.37402 0L54.626 0Z" fill="#D8F772"/>
</svg>
