<svg width="62" height="62" viewBox="0 0 62 62" fill="none" xmlns="http://www.w3.org/2000/svg">
<path d="M39.8574 1.2122C44.5253 -1.93635 50.8141 1.4171 50.8007 7.04759L50.763 22.8306C50.7597 24.2349 51.1777 25.6079 51.9629 26.7721L60.7887 39.8569C63.9373 44.5248 60.5838 50.8136 54.9533 50.8002L39.1703 50.7625C37.766 50.7592 36.393 51.1772 35.2288 51.9624L22.144 60.7882C17.4761 63.9368 11.1873 60.5833 11.2007 54.9528L11.2384 39.1698C11.2417 37.7655 10.8237 36.3925 10.0385 35.2283L1.21268 22.1435C-1.93586 17.4756 1.41758 11.1868 7.04807 11.2003L22.8311 11.2379C24.2354 11.2412 25.6084 10.8233 26.7726 10.038L39.8574 1.2122Z" fill="#D8F772"/>
</svg>
