<svg width="124" height="124" viewBox="0 0 124 124" fill="none" xmlns="http://www.w3.org/2000/svg">
<path d="M44.2954 5.38747C45.7024 -0.448505 53.3039 -1.95149 56.826 2.90988L66.3296 16.027C68.4832 18.9995 72.5609 19.8155 75.6925 17.9005L89.5117 9.45037C94.6333 6.31863 101.071 10.6309 100.124 16.5589L97.569 32.5542C96.9899 36.1789 99.2963 39.6392 102.865 40.4996L118.612 44.2961C124.448 45.7031 125.951 53.3046 121.089 56.8267L107.972 66.3302C105 68.4839 104.184 72.5616 106.099 75.6932L114.549 89.5124C117.68 94.634 113.368 101.072 107.44 100.125L91.4449 97.5696C87.8202 96.9906 84.3598 99.297 83.4995 102.865L79.703 118.612C78.296 124.448 70.6945 125.951 67.1724 121.09L57.6688 107.973C55.5152 105 51.4375 104.184 48.3059 106.099L34.4867 114.549C29.3651 117.681 22.9273 113.369 23.8742 107.441L26.4294 91.4456C27.0085 87.8208 24.7021 84.3605 21.1336 83.5002L5.38679 79.7037C-0.449187 78.2967 -1.95217 70.6952 2.9092 67.1731L16.0263 57.6695C18.9988 55.5159 19.8148 51.4382 17.8999 48.3066L9.44969 34.4873C6.31795 29.3658 10.6302 22.9279 16.5583 23.8749L32.5535 26.4301C36.1782 27.0092 39.6386 24.7028 40.4989 21.1343L44.2954 5.38747Z" fill="#D8F772"/>
</svg>
