<svg width="415" height="105" viewBox="0 0 415 105" fill="none" xmlns="http://www.w3.org/2000/svg">
<g clip-path="url(#clip0_30_4197)">
<rect width="414.903" height="105" fill="white"/>
<circle cx="207.45" cy="-89.1985" r="150.874" stroke="#D8F772" stroke-width="1.01942"/>
<path d="M222.235 94.8066L207.453 85.9561L192.672 94.8066V55.5586H222.235V94.8066ZM198.275 58.6172C196.868 58.6172 195.727 59.7585 195.727 61.166C195.727 62.5734 196.868 63.7139 198.275 63.7139C199.683 63.7137 200.823 62.5733 200.823 61.166C200.823 59.7586 199.683 58.6173 198.275 58.6172ZM216.627 58.6172C215.219 58.6172 214.078 59.7585 214.078 61.166C214.078 62.5734 215.22 63.7139 216.627 63.7139C218.034 63.7137 219.175 62.5733 219.175 61.166C219.175 59.7586 218.034 58.6173 216.627 58.6172Z" fill="#D8F772"/>
<path d="M161.834 89.8088L150.97 76.4362L134.053 79.6975L147.477 42.8164L175.257 52.9277L161.834 89.8088ZM151.7 47.6084C150.377 47.127 148.915 47.8084 148.433 49.1308C147.952 50.4535 148.634 51.9163 149.957 52.3977C151.279 52.8789 152.741 52.1965 153.222 50.874C153.704 49.5516 153.022 48.0899 151.7 47.6084ZM168.942 53.8831C167.62 53.4017 166.157 54.0839 165.675 55.4064C165.194 56.7291 165.876 58.1919 167.199 58.6733C168.521 59.1545 169.983 58.4722 170.465 57.1496C170.946 55.8271 170.265 54.3646 168.942 53.8831Z" fill="#D8F772"/>
<path d="M106.239 66.4008L100.604 50.119L83.5922 47.3978L108.82 17.332L131.467 36.3351L106.239 66.4008ZM125.207 35.0757C124.128 34.171 122.52 34.3116 121.616 35.3899C120.711 36.4681 120.852 38.076 121.93 38.9807C123.008 39.8853 124.615 39.744 125.52 38.666C126.425 37.5878 126.285 35.9805 125.207 35.0757ZM111.151 23.2807C110.073 22.3761 108.465 22.5167 107.56 23.5948C106.656 24.673 106.797 26.2803 107.875 27.185C108.953 28.0896 110.561 27.9495 111.465 26.8716C112.37 25.7933 112.23 24.1854 111.151 23.2807Z" fill="#D8F772"/>
<path d="M253.065 89.8088L263.929 76.4362L280.845 79.6975L267.422 42.8164L239.641 52.9277L253.065 89.8088ZM263.199 47.6084C264.521 47.127 265.984 47.8084 266.465 49.1308C266.947 50.4535 266.265 51.9163 264.942 52.3977C263.619 52.8789 262.157 52.1965 261.676 50.874C261.195 49.5516 261.876 48.0899 263.199 47.6084ZM245.956 53.8831C247.279 53.4017 248.742 54.0839 249.223 55.4064C249.705 56.7291 249.022 58.1919 247.7 58.6733C246.377 59.1545 244.915 58.4722 244.434 57.1496C243.953 55.8271 244.634 54.3646 245.956 53.8831Z" fill="#D8F772"/>
<path d="M308.659 66.4008L314.294 50.119L331.306 47.3978L306.078 17.332L283.431 36.3351L308.659 66.4008ZM289.692 35.0757C290.77 34.171 292.378 34.3116 293.283 35.3899C294.187 36.4681 294.047 38.076 292.969 38.9807C291.89 39.8853 290.283 39.744 289.378 38.666C288.474 37.5878 288.614 35.9805 289.692 35.0757ZM303.747 23.2807C304.825 22.3761 306.433 22.5167 307.338 23.5948C308.242 24.673 308.101 26.2803 307.023 27.185C305.945 28.0896 304.338 27.9495 303.433 26.8716C302.528 25.7933 302.669 24.1854 303.747 23.2807Z" fill="#D8F772"/>
<path d="M165.891 55.3457C177.059 58.5512 188.759 60.4962 200.828 61.0195V62.0391C188.636 61.514 176.819 59.5475 165.541 56.3047L165.891 55.3457ZM249.281 56.3291C238.123 59.5302 226.438 61.4822 214.385 62.0254V61.0059C226.316 60.4645 237.884 58.534 248.932 55.3701L249.281 56.3291ZM293.107 35.6387C283.522 42.2281 273.139 47.7403 262.134 52.0049L261.785 51.0469C272.678 46.8241 282.955 41.3691 292.448 34.8525L293.107 35.6387ZM122.185 34.665C131.73 41.2485 142.073 46.7555 153.04 51.0146L152.69 51.9756C141.611 47.6747 131.165 42.1056 121.527 35.4492L122.185 34.665ZM209.41 -240.569C292.115 -239.522 358.837 -172.152 358.837 -89.1982L358.825 -87.2422C358.241 -41.0945 337.005 0.074295 303.938 27.4551L303.283 26.6758C336.595 -0.90451 357.818 -42.5724 357.818 -89.1982C357.818 -172.242 290.498 -239.562 207.454 -239.562C124.41 -239.562 57.0898 -172.242 57.0898 -89.1982C57.0899 -42.6915 78.2052 -1.11771 111.37 26.4639L110.714 27.2451C77.7923 -0.136139 56.666 -41.2134 56.083 -87.2422L56.0703 -89.1982C56.0703 -172.805 123.847 -240.582 207.454 -240.582L209.41 -240.569Z" fill="#D8F772"/>
</g>
<defs>
<clipPath id="clip0_30_4197">
<rect width="414.903" height="105" fill="white"/>
</clipPath>
</defs>
</svg>
