<svg width="291" height="200" viewBox="0 0 291 200" fill="none" xmlns="http://www.w3.org/2000/svg">
<g clip-path="url(#clip0_0_3)">
<circle cx="244" cy="-175" r="296" stroke="#6C7EFE" stroke-width="2"/>
<path d="M273 186L244 168.638L215 186V109H273V186ZM226 115C223.239 115 221 117.239 221 120C221 122.761 223.239 125 226 125C228.761 125 231 122.761 231 120C231 117.239 228.761 115 226 115ZM262 115C259.239 115 257 117.239 257 120C257 122.761 259.239 125 262 125C264.761 125 267 122.761 267 120C267 117.239 264.761 115 262 115Z" fill="#D8F772"/>
<path d="M154.503 176.194L133.19 149.96L100 156.356L126.336 84L180.838 103.837L154.503 176.194ZM134.62 93.4004C132.026 92.4559 129.156 93.7938 128.212 96.3887C127.267 98.9836 128.605 101.853 131.2 102.797C133.795 103.742 136.664 102.404 137.609 99.8089C138.553 97.2141 137.215 94.3448 134.62 93.4004ZM168.448 105.713C165.854 104.768 162.984 106.106 162.04 108.701C161.095 111.296 162.433 114.165 165.028 115.11C167.623 116.054 170.492 114.716 171.437 112.121C172.381 109.527 171.043 106.657 168.448 105.713Z" fill="#D8F772"/>
<path d="M45.4301 130.267L34.3751 98.326L0.999493 92.9854L50.4941 34L94.9247 71.2817L45.4301 130.267ZM82.6409 68.808C80.5255 67.033 77.3717 67.3089 75.5967 69.4243C73.8218 71.5397 74.0977 74.6935 76.213 76.4685C78.3283 78.2432 81.4822 77.9674 83.2572 75.8522C85.0321 73.7369 84.756 70.5831 82.6409 68.808ZM55.0647 45.6676C52.9493 43.8925 49.7955 44.1685 48.0205 46.2838C46.2457 48.3992 46.5215 51.5531 48.6368 53.328C50.7521 55.1027 53.906 54.8268 55.6809 52.7117C57.4559 50.5964 57.1798 47.4426 55.0647 45.6676Z" fill="#D8F772"/>
<path d="M162.458 108.584C184.368 114.872 207.322 118.691 231 119.718V121.72C207.082 120.69 183.897 116.83 161.771 110.469L162.458 108.584ZM326.067 110.515C304.174 116.796 281.246 120.628 257.597 121.693V119.691C281.006 118.629 303.704 114.838 325.381 108.63L326.067 110.515ZM412.046 69.9189C393.241 82.8465 372.872 93.6645 351.282 102.031L350.599 100.151C371.968 91.8668 392.131 81.1631 410.754 68.3789L412.046 69.9189ZM76.708 68.0098C95.4353 80.9265 115.729 91.7347 137.246 100.091L136.562 101.971C114.824 93.5325 94.3261 82.6088 75.417 69.5488L76.708 68.0098ZM244 -472C408.029 -472 541 -339.029 541 -175C541 -82.9097 499.086 -0.609497 433.296 53.8672L432.01 52.335C497.364 -1.77481 539 -83.5246 539 -175C539 -337.924 406.924 -470 244 -470C81.076 -470 -51 -337.924 -51 -175C-51 -83.7581 -9.57599 -2.19235 55.4902 51.9199L54.2041 53.4521C-11.2987 -1.02704 -53 -83.1432 -53 -175C-53 -339.029 79.9714 -472 244 -472Z" fill="#6C7EFE"/>
</g>
<defs>
<clipPath id="clip0_0_3">
<rect width="291" height="200" fill="white"/>
</clipPath>
</defs>
</svg>
